<svg width="40" height="40" viewBox="0 0 40 40" fill="none" xmlns="http://www.w3.org/2000/svg">
<path d="M27.8902 19.376L24.2734 19.3768V34.3425C24.2734 35.4637 23.3619 36.3756 22.2394 36.376H17.7925C16.6704 36.3756 15.7572 35.4641 15.7567 34.3434L15.7576 31.5078H12.1421L12.1425 34.3421C12.1417 37.4562 14.6769 39.9913 17.7925 39.9917H22.2394C25.355 39.9917 27.8893 37.4562 27.8893 34.343L27.8902 19.376Z" fill="#D4D4D8"/>
<path d="M20.6144 27.88L20.6157 24.2632H5.64952C4.52702 24.264 3.61464 23.3516 3.61421 22.2304L3.6155 17.7822C3.61464 16.6606 4.52745 15.7478 5.64909 15.7482H8.48267V12.1318H5.64909C2.53434 12.1318 0 14.6666 0 17.7826V22.2296C0 25.3448 2.53434 27.8791 5.64952 27.8791L20.6144 27.88Z" fill="#D4D4D8"/>
<path d="M12.1528 20.6245L15.7696 20.6237L15.7696 5.65796C15.7696 4.53682 16.6811 3.62493 17.8036 3.6245L22.2505 3.6245C23.3726 3.62493 24.2858 4.53639 24.2862 5.65709L24.2854 8.49266L27.9009 8.49266L27.9004 5.65839C27.9013 2.54427 25.3661 0.00922372 22.2505 0.00879238L17.8036 0.00879199C14.688 0.00879172 12.1536 2.54426 12.1536 5.65752L12.1528 20.6245Z" fill="#D4D4D8"/>
<path d="M19.3856 12.132L19.3843 15.7488L34.3505 15.7488C35.473 15.7479 36.3854 16.6603 36.3858 17.7815L36.3845 22.2298C36.3854 23.3514 35.4726 24.2642 34.3509 24.2638L31.5173 24.2638L31.5173 27.8801L34.3509 27.8801C37.4657 27.8801 40 25.3454 40 22.2293L40 17.7824C40 14.6672 37.4657 12.1329 34.3505 12.1329L19.3856 12.132Z" fill="#D4D4D8"/>
<ellipse cx="6.02806" cy="6.0283" rx="3.44456" ry="3.44456" fill="#D4D4D8"/>
<ellipse cx="6.02806" cy="33.9724" rx="3.44456" ry="3.44456" fill="#D4D4D8"/>
<ellipse cx="33.9719" cy="6.0283" rx="3.44456" ry="3.44456" fill="#D4D4D8"/>
<ellipse cx="33.9719" cy="33.9724" rx="3.44456" ry="3.44456" fill="#D4D4D8"/>
</svg>
